# xmcd
#
# Track frame offsets: 
#        150
#        19837
#        37405
#        53403
#        65909
#        80721
#        107892
#        128855
#        153779
#        171195
#        195770
#        208743
#        221944
#        240467
#
# Disc length: 3492 seconds
#
# Revision: 0
# Processed by: cddbd v1.5.2PL0 Copyright (c) Steve Scherf et al.
# Submitted via: ExactAudioCopy v0.99pb4
#
DISCID=c90da20e
DTITLE=Prosser - Prosser
DYEAR=2006
DGENRE=Indie
TTITLE0=A Worthy Seed
TTITLE1=Summer Song 3
TTITLE2=I Met a Girl
TTITLE3=The Time Has Come
TTITLE4=Today
TTITLE5=Summer Song 1
TTITLE6=Get Gone
TTITLE7=State I'm In
TTITLE8=Everything I Do
TTITLE9=The Path to a Field with a View of the City
TTITLE10=Someday Soon
TTITLE11=Kind Words
TTITLE12=Dwell
TTITLE13=Summer Song 2
EXTD=
EXTT0=
EXTT1=
EXTT2=
EXTT3=
EXTT4=
EXTT5=
EXTT6=
EXTT7=
EXTT8=
EXTT9=
EXTT10=
EXTT11=
EXTT12=
EXTT13=
PLAYORDER=
